 <svg  version="1.0" xmlns="http://www.w3.org/2000/svg"  width="300.000000pt" height="300.000000pt" viewBox="0 0 300.000000 300.000000"  preserveAspectRatio="xMidYMid meet">  <g transform="translate(0.000000,300.000000) scale(0.100000,-0.100000)" fill="#956000" stroke="none"> <path d="M1340 2589 c-74 -39 -186 -97 -249 -130 -89 -45 -110 -60 -95 -65 10 -4 53 -22 94 -41 73 -33 100 -36 100 -10 0 21 60 72 120 103 51 26 64 29 165 29 106 0 113 -1 187 -37 58 -27 84 -47 105 -77 15 -22 31 -40 34 -41 4 0 35 13 70 29 72 33 79 30 79 -36 0 -30 -6 -49 -20 -63 -25 -25 -25 -51 -2 -80 25 -31 65 -21 82 20 11 28 11 34 -9 60 -17 23 -21 43 -21 97 l0 68 -245 123 c-134 67 -248 122 -252 122 -4 0 -69 -32 -143 -71z"/> <path d="M1419 2430 c-124 -21 -189 -93 -189 -210 l0 -61 64 45 c89 64 170 100 208 92 26 -5 148 -75 216 -122 22 -16 22 -16 22 25 0 69 -20 131 -54 165 -53 52 -173 82 -267 66z"/> <path d="M1020 1918 c-280 -187 -460 -313 -469 -329 -25 -45 3 -102 55 -115 20 -5 81 31 347 207 177 118 369 246 427 286 89 61 107 70 120 59 41 -36 830 -556 843 -556 44 0 87 72 72 121 -4 12 -66 60 -153 117 -81 52 -164 109 -184 125 l-38 29 0 102 c0 57 -2 105 -4 107 -2 2 -43 3 -90 1 l-86 -3 0 -45 c0 -24 -2 -44 -5 -44 -3 0 -86 54 -185 120 -99 66 -183 120 -188 120 -4 0 -212 -136 -462 -302z"/> <path d="M1383 1813 c-8 -3 -13 -23 -13 -49 l0 -44 44 0 c53 0 60 8 51 60 -6 37 -9 40 -38 39 -18 0 -38 -3 -44 -6z"/> <path d="M1513 1813 c-8 -3 -13 -23 -13 -49 l0 -45 48 3 c45 3 47 4 50 36 2 18 -2 40 -9 48 -11 14 -51 18 -76 7z"/> <path d="M1370 1652 c0 -47 21 -65 68 -60 24 3 27 8 30 46 3 36 0 42 -16 42 -11 0 -34 3 -51 6 -31 6 -31 6 -31 -34z"/> <path d="M1500 1646 l0 -47 43 3 c41 3 42 4 45 41 2 27 -1 37 -11 37 -8 0 -29 3 -46 6 l-31 7 0 -47z"/> <path d="M1010 1535 c-30 -7 -81 -21 -112 -31 -47 -15 -58 -23 -58 -40 0 -37 -10 -52 -30 -47 -11 3 -32 2 -46 -1 l-27 -7 7 -362 c3 -198 9 -363 11 -366 3 -3 36 5 73 17 209 67 400 43 523 -66 26 -23 59 -46 73 -52 64 -24 132 -5 196 55 14 13 57 39 95 57 69 33 72 33 210 33 121 -1 149 -4 202 -23 35 -13 67 -21 73 -17 6 4 10 132 10 365 l0 359 -42 8 c-38 8 -43 12 -46 38 -3 29 -7 31 -95 57 -118 36 -197 44 -283 29 -71 -13 -191 -63 -234 -98 l-25 -21 -40 28 c-132 90 -286 120 -435 85z m266 -69 c28 -9 78 -34 112 -56 l62 -40 0 -280 c0 -154 -2 -280 -4 -280 -2 0 -28 16 -58 35 -135 90 -310 116 -465 69 l-23 -6 0 259 0 260 38 17 c105 48 228 56 338 22z m711 -7 l73 -22 0 -265 0 -264 -22 6 c-13 4 -57 12 -98 18 -62 9 -88 8 -153 -5 -90 -18 -176 -55 -229 -97 -20 -17 -39 -30 -42 -30 -3 0 -6 126 -6 279 l0 279 31 27 c117 98 276 124 446 74z"/> <path d="M1033 1358 c-39 -8 -43 -12 -43 -40 0 -22 4 -29 14 -25 80 31 196 27 297 -8 52 -19 49 -19 49 9 0 18 -9 27 -42 39 -104 38 -185 46 -275 25z"/> <path d="M1023 1219 c-28 -8 -33 -15 -33 -39 0 -28 1 -29 28 -18 48 20 200 14 260 -11 65 -26 68 -26 75 -1 4 16 -6 25 -52 46 -46 22 -73 28 -151 30 -52 2 -110 -1 -127 -7z"/> <path d="M1066 1089 c-68 -11 -76 -15 -76 -44 0 -23 3 -25 28 -18 15 5 70 8 122 8 78 -1 105 -5 148 -24 45 -20 55 -22 63 -10 14 23 11 28 -29 48 -72 37 -176 53 -256 40z"/> <path d="M1712 1354 c-81 -21 -111 -40 -105 -64 6 -24 13 -24 83 0 61 21 182 27 239 10 40 -11 40 -11 43 21 3 21 -3 25 -42 36 -61 16 -154 15 -218 -3z"/> <path d="M1715 1216 c-27 -7 -64 -20 -82 -29 -28 -15 -31 -20 -24 -40 5 -12 13 -21 18 -20 4 2 35 12 68 24 51 18 76 20 167 17 107 -4 118 -2 118 32 0 27 -176 38 -265 16z"/> <path d="M1704 1071 c-72 -26 -94 -40 -94 -56 0 -24 15 -25 71 -3 56 22 191 30 255 16 27 -6 33 -4 38 15 3 12 1 26 -5 32 -5 5 -56 11 -112 12 -80 2 -113 -1 -153 -16z"/> <path d="M2394 1295 c-9 -23 3 -45 25 -45 25 0 34 14 26 40 -7 23 -43 27 -51 5z"/> </g> </svg> 